<?xml version="1.0" encoding="UTF-8" standalone="no"?>
<!DOCTYPE svg PUBLIC "-//W3C//DTD SVG 1.1//EN" "http://www.w3.org/Graphics/SVG/1.1/DTD/svg11.dtd">
<svg width="100%" height="100%" viewBox="0 0 55 27" version="1.1" xmlns="http://www.w3.org/2000/svg" xmlns:xlink="http://www.w3.org/1999/xlink" xml:space="preserve" xmlns:serif="http://www.serif.com/" style="fill-rule:evenodd;clip-rule:evenodd;stroke-linejoin:round;stroke-miterlimit:2;">
    <style>
    path {
      fill: #000;
    }
    @media (prefers-color-scheme: dark) {
      path {
        fill: #ffdb00;
      }
    }
  </style>
    <g transform="matrix(1,0,0,1,-17.8893,0.00701479)">
        <g transform="matrix(1,0,0,1,-3083.37,-135.884)">
            <g transform="matrix(0.114133,0,0,0.114133,3055.26,39.2319)">
                <g>
                    <g transform="matrix(144,8,8,-144,447.692,922.552)">
                        <path d="M-0.338,0.507L-0.08,0.276L0.784,0.324C0.867,0.329 0.948,0.315 1.021,0.287C1.023,0.286 1.026,0.285 1.029,0.284C1.069,0.267 1.107,0.247 1.143,0.222C1.156,0.212 1.169,0.202 1.182,0.191C1.257,0.128 1.316,0.046 1.351,-0.049C1.368,-0.094 1.379,-0.143 1.384,-0.193L1.384,-0.192C1.384,-0.192 1.385,-0.207 1.385,-0.214C1.386,-0.221 1.386,-0.228 1.386,-0.235C1.386,-0.237 1.388,-0.254 1.388,-0.254C1.389,-0.256 1.389,-0.259 1.389,-0.261C1.39,-0.269 1.392,-0.278 1.394,-0.287C1.394,-0.289 1.397,-0.302 1.397,-0.304C1.398,-0.306 1.401,-0.317 1.401,-0.318C1.402,-0.324 1.406,-0.337 1.407,-0.339C1.408,-0.342 1.411,-0.351 1.411,-0.353C1.413,-0.359 1.415,-0.364 1.417,-0.37C1.419,-0.373 1.42,-0.376 1.421,-0.38C1.425,-0.39 1.429,-0.399 1.434,-0.409C1.435,-0.411 1.436,-0.413 1.437,-0.415C1.44,-0.422 1.444,-0.43 1.449,-0.437C1.449,-0.439 1.457,-0.452 1.458,-0.453C1.459,-0.455 1.467,-0.469 1.468,-0.47C1.47,-0.473 1.477,-0.483 1.478,-0.484C1.482,-0.489 1.486,-0.495 1.49,-0.5C1.491,-0.502 1.5,-0.514 1.503,-0.518C1.504,-0.519 1.518,-0.534 1.519,-0.535C1.52,-0.536 1.521,-0.538 1.522,-0.539C1.533,-0.551 1.544,-0.562 1.556,-0.573C1.558,-0.574 1.559,-0.575 1.561,-0.577C1.609,-0.468 1.635,-0.346 1.63,-0.219C1.63,-0.213 1.629,-0.207 1.629,-0.201C1.628,-0.194 1.628,-0.188 1.628,-0.182C1.619,-0.056 1.58,0.062 1.52,0.166C1.511,0.18 1.502,0.195 1.493,0.209C1.447,0.277 1.391,0.338 1.327,0.389C1.314,0.4 1.301,0.41 1.288,0.419C1.207,0.477 1.115,0.52 1.016,0.545C0.938,0.565 0.855,0.573 0.77,0.569L-0.338,0.507Z" style="fill-rule:nonzero;"/>
                    </g>
                    <g transform="matrix(144,8,8,-144,442.319,1021.8)">
                        <path d="M0,0.397C0.005,0.311 0.023,0.23 0.051,0.154C0.174,-0.169 0.495,-0.391 0.859,-0.371C1.051,-0.36 1.224,-0.284 1.357,-0.165C1.347,-0.157 1.338,-0.149 1.328,-0.14C1.276,-0.094 1.23,-0.041 1.191,0.015C1.099,-0.067 0.979,-0.119 0.846,-0.127C0.825,-0.128 0.805,-0.128 0.784,-0.127C0.78,-0.127 0.776,-0.126 0.771,-0.126C0.576,-0.111 0.405,0.003 0.314,0.169C0.285,0.221 0.264,0.277 0.253,0.338C0.249,0.361 0.246,0.386 0.244,0.41L0,0.397Z" style="fill-rule:nonzero;"/>
                    </g>
                    <g transform="matrix(107.117,0,0,-107.117,501,1002.23)">
                        <path d="M-0.123,0.35C-0.123,0.343 -0.123,0.335 -0.122,0.327C-0.122,0.324 -0.122,0.309 -0.121,0.305C-0.121,0.302 -0.12,0.288 -0.12,0.285C-0.119,0.283 -0.119,0.281 -0.119,0.278C-0.117,0.255 -0.113,0.233 -0.109,0.211C-0.108,0.208 -0.105,0.196 -0.105,0.193C-0.104,0.19 -0.102,0.181 -0.101,0.179C-0.1,0.176 -0.1,0.173 -0.099,0.169L-0.098,0.169L-0.098,0.168C-0.098,0.165 -0.097,0.162 -0.096,0.159C-0.094,0.151 -0.091,0.144 -0.089,0.136C-0.088,0.133 -0.087,0.13 -0.086,0.126C-0.084,0.121 -0.082,0.116 -0.08,0.111C-0.079,0.108 -0.078,0.104 -0.076,0.1C-0.069,0.083 -0.062,0.066 -0.054,0.049C-0.053,0.048 -0.047,0.036 -0.046,0.033C-0.045,0.031 -0.038,0.019 -0.038,0.018C-0.036,0.015 -0.035,0.013 -0.034,0.01C-0.03,0.003 -0.026,-0.004 -0.022,-0.01C-0.02,-0.013 -0.014,-0.023 -0.012,-0.025C-0.011,-0.028 -0.009,-0.03 -0.008,-0.033C-0.005,-0.037 -0.002,-0.042 0.001,-0.046C0.095,-0.181 0.234,-0.282 0.396,-0.326C0.402,-0.328 0.409,-0.329 0.416,-0.331C0.422,-0.332 0.429,-0.334 0.435,-0.335C0.439,-0.336 0.442,-0.337 0.446,-0.337C0.452,-0.339 0.459,-0.34 0.466,-0.341C0.473,-0.342 0.479,-0.343 0.486,-0.344C0.489,-0.344 0.501,-0.346 0.504,-0.346C0.507,-0.347 0.526,-0.348 0.528,-0.348C0.531,-0.349 0.539,-0.349 0.54,-0.349C0.546,-0.35 0.553,-0.35 0.559,-0.35L0.605,-0.35C0.608,-0.35 0.611,-0.35 0.614,-0.349C0.622,-0.349 0.63,-0.349 0.638,-0.348C0.64,-0.348 0.643,-0.347 0.646,-0.347C0.654,-0.346 0.662,-0.346 0.67,-0.345C0.675,-0.344 0.681,-0.343 0.686,-0.342C0.689,-0.342 0.7,-0.34 0.702,-0.34C0.705,-0.339 0.717,-0.337 0.721,-0.336L0.723,-0.336C0.725,-0.335 0.732,-0.334 0.733,-0.333C0.74,-0.332 0.747,-0.33 0.753,-0.329C0.76,-0.327 0.768,-0.325 0.775,-0.323C0.778,-0.322 0.782,-0.321 0.785,-0.32C0.789,-0.319 0.802,-0.314 0.806,-0.313C0.809,-0.312 0.822,-0.307 0.825,-0.306C0.833,-0.303 0.84,-0.301 0.847,-0.298C0.85,-0.296 0.863,-0.291 0.867,-0.289C0.87,-0.288 0.873,-0.286 0.876,-0.285L0.877,-0.285C0.88,-0.283 0.893,-0.277 0.896,-0.275C0.899,-0.274 0.902,-0.272 0.905,-0.271C0.909,-0.268 0.913,-0.266 0.917,-0.264C0.921,-0.262 0.925,-0.259 0.929,-0.257C0.932,-0.256 0.934,-0.254 0.937,-0.253C0.941,-0.25 0.951,-0.244 0.951,-0.244C0.955,-0.242 0.959,-0.239 0.963,-0.237C0.983,-0.224 1.002,-0.21 1.02,-0.195C1.021,-0.195 1.021,-0.194 1.022,-0.194C0.963,-0.082 0.922,0.038 0.902,0.163C0.866,0.103 0.814,0.053 0.751,0.021C0.7,-0.006 0.642,-0.021 0.58,-0.021C0.572,-0.021 0.564,-0.021 0.556,-0.02C0.503,-0.017 0.453,-0.002 0.409,0.021C0.295,0.08 0.216,0.195 0.207,0.329L0.207,0.35L-0.123,0.35Z" style="fill-rule:nonzero;"/>
                    </g>
                    <g transform="matrix(144,8,8,-144,448.427,909.305)">
                        <path d="M-0.027,0.137L0.231,-0.094L0.77,-0.064C0.78,-0.063 0.79,-0.061 0.8,-0.061C0.81,-0.06 0.82,-0.06 0.83,-0.061C0.919,-0.066 0.998,-0.113 1.046,-0.184C1.056,-0.091 1.081,0 1.12,0.085C1.112,0.091 1.103,0.097 1.095,0.103C1.092,0.104 1.078,0.113 1.076,0.114C1.075,0.115 1.06,0.123 1.058,0.124C1.057,0.125 1.042,0.132 1.04,0.133C1.037,0.135 1.032,0.137 1.032,0.137C1.025,0.14 1.011,0.146 1.01,0.147C1.005,0.148 1,0.15 0.996,0.152C0.99,0.154 0.983,0.156 0.977,0.158C0.973,0.16 0.969,0.161 0.965,0.162C0.959,0.164 0.953,0.166 0.947,0.167C0.945,0.168 0.934,0.17 0.932,0.171C0.929,0.172 0.918,0.174 0.915,0.175C0.912,0.175 0.898,0.178 0.896,0.178C0.894,0.178 0.883,0.18 0.88,0.18C0.875,0.181 0.869,0.182 0.863,0.182C0.86,0.182 0.857,0.183 0.854,0.183C0.848,0.183 0.842,0.184 0.837,0.184L0.828,0.184L-0.027,0.137Z" style="fill-rule:nonzero;"/>
                    </g>
                    <g transform="matrix(-131,0,0,131,838,996.479)">
                        <path d="M1.794,-0.264C1.793,-0.258 1.793,-0.251 1.793,-0.244C1.793,-0.238 1.794,-0.224 1.794,-0.224C1.791,-0.084 1.755,0.048 1.695,0.165C1.687,0.182 1.678,0.198 1.668,0.214C1.622,0.292 1.564,0.362 1.497,0.423C1.484,0.435 1.47,0.446 1.456,0.458C1.302,0.58 1.108,0.654 0.896,0.654C0.495,0.654 0.155,0.39 0.04,0.027C0.013,-0.058 -0.002,-0.149 -0.002,-0.243L0.267,-0.243C0.268,-0.215 0.269,-0.189 0.273,-0.162C0.282,-0.096 0.301,-0.032 0.329,0.027C0.419,0.215 0.6,0.351 0.814,0.379C0.819,0.379 0.824,0.38 0.828,0.381C0.851,0.383 0.873,0.384 0.896,0.384C1.042,0.384 1.177,0.334 1.284,0.25C1.299,0.238 1.313,0.226 1.326,0.214C1.405,0.14 1.465,0.045 1.497,-0.061C1.513,-0.112 1.522,-0.166 1.524,-0.221L1.524,-0.222C1.524,-0.229 1.525,-0.237 1.525,-0.244C1.525,-0.252 1.524,-0.268 1.524,-0.268C1.524,-0.268 1.524,-0.274 1.525,-0.277C1.533,-0.42 1.595,-0.555 1.695,-0.654C1.756,-0.536 1.791,-0.404 1.794,-0.264Z" style="fill-rule:nonzero;"/>
                    </g>
                    <g transform="matrix(-131,0,0,131,838,873.305)">
                        <path d="M0.896,-0.202C0.99,-0.202 1.08,-0.188 1.165,-0.161C1.272,-0.127 1.37,-0.074 1.456,-0.006C1.411,0.034 1.371,0.079 1.335,0.127C1.317,0.152 1.3,0.177 1.284,0.202C1.247,0.173 1.206,0.147 1.163,0.127C1.16,0.126 1.157,0.124 1.155,0.123C1.076,0.087 0.988,0.067 0.896,0.067L-0.057,0.067L-0.326,-0.202L0.896,-0.202Z" style="fill-rule:nonzero;"/>
                    </g>
                    <g transform="matrix(-105.119,0,0,105.119,786,1002.23)">
                        <path d="M0.242,-0.357L0.242,-0.335C0.251,-0.198 0.332,-0.081 0.447,-0.021C0.493,0.002 0.544,0.017 0.598,0.02C0.606,0.021 0.614,0.021 0.622,0.021C0.685,0.021 0.744,0.006 0.797,-0.021C0.86,-0.054 0.913,-0.105 0.95,-0.166C0.97,-0.038 1.012,0.084 1.072,0.197C1.069,0.2 1.067,0.202 1.064,0.204C1.061,0.206 1.049,0.215 1.046,0.218C1.043,0.22 1.032,0.227 1.03,0.229C1.026,0.232 1.015,0.239 1.012,0.241C0.998,0.25 0.984,0.259 0.97,0.267C0.968,0.268 0.965,0.269 0.963,0.27C0.956,0.274 0.95,0.277 0.943,0.281C0.941,0.282 0.938,0.283 0.936,0.284C0.929,0.288 0.923,0.291 0.916,0.294C0.914,0.295 0.912,0.296 0.91,0.297C0.904,0.299 0.898,0.302 0.892,0.304C0.887,0.306 0.882,0.308 0.876,0.31C0.874,0.311 0.872,0.312 0.869,0.313C0.846,0.322 0.822,0.329 0.797,0.335C0.794,0.336 0.78,0.339 0.777,0.34C0.773,0.341 0.758,0.344 0.755,0.345C0.755,0.345 0.741,0.347 0.738,0.347C0.727,0.349 0.716,0.351 0.704,0.352C0.701,0.353 0.691,0.354 0.689,0.354C0.686,0.354 0.684,0.354 0.681,0.355C0.675,0.355 0.658,0.356 0.656,0.356C0.645,0.357 0.633,0.357 0.622,0.357L0.601,0.357C0.588,0.356 0.575,0.356 0.563,0.355C0.56,0.354 0.557,0.354 0.554,0.354C0.545,0.353 0.535,0.352 0.526,0.35C0.522,0.35 0.506,0.348 0.505,0.347C0.502,0.347 0.49,0.345 0.488,0.344C0.484,0.344 0.479,0.343 0.475,0.342C0.461,0.339 0.448,0.336 0.434,0.332C0.273,0.288 0.134,0.189 0.039,0.056C0.033,0.049 0.028,0.041 0.023,0.033C0.022,0.032 0.014,0.02 0.012,0.015C0.01,0.013 0.003,0.001 0.001,-0.003C-0.001,-0.006 -0.008,-0.019 -0.009,-0.021C-0.011,-0.024 -0.017,-0.036 -0.019,-0.039C-0.021,-0.043 -0.023,-0.047 -0.025,-0.051C-0.026,-0.055 -0.03,-0.063 -0.031,-0.064C-0.032,-0.068 -0.034,-0.072 -0.036,-0.076C-0.038,-0.08 -0.039,-0.084 -0.041,-0.089L-0.042,-0.09C-0.043,-0.094 -0.045,-0.098 -0.047,-0.102C-0.048,-0.106 -0.049,-0.109 -0.051,-0.113C-0.052,-0.116 -0.056,-0.13 -0.057,-0.133C-0.06,-0.139 -0.062,-0.146 -0.064,-0.152C-0.065,-0.155 -0.068,-0.168 -0.069,-0.172C-0.07,-0.175 -0.074,-0.19 -0.075,-0.194C-0.076,-0.198 -0.077,-0.201 -0.077,-0.205C-0.078,-0.205 -0.078,-0.205 -0.078,-0.206C-0.078,-0.209 -0.081,-0.224 -0.082,-0.228C-0.083,-0.235 -0.085,-0.241 -0.086,-0.248C-0.088,-0.262 -0.09,-0.277 -0.091,-0.292C-0.091,-0.294 -0.092,-0.297 -0.092,-0.3C-0.092,-0.308 -0.093,-0.317 -0.093,-0.326C-0.094,-0.332 -0.094,-0.339 -0.094,-0.345L-0.094,-0.357L0.242,-0.357Z" style="fill-rule:nonzero;"/>
                    </g>
                    <g transform="matrix(-131,0,0,131,838.139,916.797)">
                        <path d="M0.943,-0.209C0.943,-0.209 0.959,-0.207 0.962,-0.207C0.965,-0.207 0.982,-0.205 0.982,-0.204C0.985,-0.204 0.997,-0.202 1,-0.202C1.022,-0.197 1.044,-0.192 1.065,-0.186C1.068,-0.185 1.08,-0.181 1.082,-0.18C1.086,-0.179 1.089,-0.178 1.092,-0.177C1.099,-0.174 1.106,-0.172 1.112,-0.169C1.114,-0.168 1.123,-0.164 1.125,-0.163C1.131,-0.161 1.136,-0.159 1.141,-0.156C1.143,-0.155 1.146,-0.154 1.149,-0.153C1.159,-0.147 1.17,-0.142 1.18,-0.136C1.185,-0.133 1.19,-0.13 1.195,-0.127C1.197,-0.126 1.2,-0.124 1.202,-0.123C1.207,-0.12 1.212,-0.117 1.217,-0.113C1.231,-0.104 1.245,-0.093 1.258,-0.082C1.21,0.009 1.177,0.107 1.16,0.209C1.112,0.128 1.028,0.071 0.93,0.06C0.919,0.059 0.908,0.059 0.897,0.059C0.886,0.059 0.875,0.059 0.864,0.06L0.269,0.06L0,-0.209L0.943,-0.209Z" style="fill-rule:nonzero;"/>
                    </g>
                </g>
            </g>
        </g>
    </g>
</svg>
